<?xml version="1.0" encoding="UTF-8"?>
<svg xmlns="http://www.w3.org/2000/svg" xmlns:xlink="http://www.w3.org/1999/xlink" width="200px" height="200px" viewBox="0 0 200 200" version="1.1">
<g id="surface1">
<path style=" stroke:none;fill-rule:nonzero;fill:rgb(49.019608%,52.549022%,54.901963%);fill-opacity:1;" d="M 191.707031 72.367188 L 191.707031 58.667969 L 100 0 L 8.292969 58.667969 L 8.292969 186.878906 C 8.292969 194.09375 14.199219 200 21.414062 200 L 178.585938 200 C 185.800781 200 191.707031 194.09375 191.707031 186.878906 Z M 191.707031 72.367188 "/>
<path style=" stroke:none;fill-rule:nonzero;fill:rgb(0%,36.078432%,72.549021%);fill-opacity:1;" d="M 191.003906 66.613281 L 100 8.398438 L 8.996094 66.613281 C 8.542969 65.289062 8.292969 63.867188 8.292969 62.394531 L 8.292969 58.667969 L 100 0 L 191.707031 58.667969 L 191.707031 62.394531 C 191.707031 63.867188 191.457031 65.289062 191.003906 66.613281 Z M 191.003906 66.613281 "/>
<path style=" stroke:none;fill-rule:nonzero;fill:rgb(100%,100%,100%);fill-opacity:1;" d="M 40.519531 36.066406 L 159.480469 36.066406 L 159.480469 178.5625 L 40.519531 178.5625 Z M 40.519531 36.066406 "/>
<path style=" stroke:none;fill-rule:nonzero;fill:rgb(11.764706%,14.509805%,16.862746%);fill-opacity:1;" d="M 140.152344 64.261719 L 59.847656 64.261719 C 58.109375 64.261719 56.699219 62.855469 56.699219 61.113281 C 56.699219 59.375 58.109375 57.964844 59.847656 57.964844 L 140.152344 57.964844 C 141.890625 57.964844 143.300781 59.375 143.300781 61.113281 C 143.300781 62.855469 141.890625 64.261719 140.152344 64.261719 Z M 140.152344 64.261719 "/>
<path style=" stroke:none;fill-rule:nonzero;fill:rgb(20%,24.313726%,28.235295%);fill-opacity:1;" d="M 140.152344 84.210938 L 59.847656 84.210938 C 58.6875 84.210938 57.75 83.269531 57.75 82.109375 C 57.75 80.949219 58.6875 80.011719 59.847656 80.011719 L 140.152344 80.011719 C 141.308594 80.011719 142.25 80.949219 142.25 82.109375 C 142.25 83.269531 141.308594 84.210938 140.152344 84.210938 Z M 140.152344 84.210938 "/>
<path style=" stroke:none;fill-rule:nonzero;fill:rgb(20%,24.313726%,28.235295%);fill-opacity:1;" d="M 140.152344 95.757812 L 59.847656 95.757812 C 58.6875 95.757812 57.75 94.816406 57.75 93.65625 C 57.75 92.496094 58.6875 91.558594 59.847656 91.558594 L 140.152344 91.558594 C 141.308594 91.558594 142.25 92.496094 142.25 93.65625 C 142.25 94.816406 141.308594 95.757812 140.152344 95.757812 Z M 140.152344 95.757812 "/>
<path style=" stroke:none;fill-rule:nonzero;fill:rgb(20%,24.313726%,28.235295%);fill-opacity:1;" d="M 135.015625 107.304688 L 64.984375 107.304688 C 63.824219 107.304688 62.886719 106.363281 62.886719 105.203125 C 62.886719 104.046875 63.824219 103.105469 64.984375 103.105469 L 135.015625 103.105469 C 136.175781 103.105469 137.113281 104.046875 137.113281 105.203125 C 137.113281 106.363281 136.175781 107.304688 135.015625 107.304688 Z M 135.015625 107.304688 "/>
<path style=" stroke:none;fill-rule:nonzero;fill:rgb(20%,24.313726%,28.235295%);fill-opacity:1;" d="M 140.152344 118.851562 L 59.847656 118.851562 C 58.6875 118.851562 57.75 117.910156 57.75 116.75 C 57.75 115.59375 58.6875 114.652344 59.847656 114.652344 L 140.152344 114.652344 C 141.308594 114.652344 142.25 115.59375 142.25 116.75 C 142.25 117.910156 141.308594 118.851562 140.152344 118.851562 Z M 140.152344 118.851562 "/>
<path style=" stroke:none;fill-rule:nonzero;fill:rgb(20%,24.313726%,28.235295%);fill-opacity:1;" d="M 133.925781 130.398438 L 66.074219 130.398438 C 64.914062 130.398438 63.976562 129.457031 63.976562 128.300781 C 63.976562 127.140625 64.914062 126.199219 66.074219 126.199219 L 133.925781 126.199219 C 135.085938 126.199219 136.023438 127.140625 136.023438 128.300781 C 136.023438 129.457031 135.082031 130.398438 133.925781 130.398438 Z M 133.925781 130.398438 "/>
<path style=" stroke:none;fill-rule:nonzero;fill:rgb(20%,24.313726%,28.235295%);fill-opacity:1;" d="M 116.679688 141.945312 L 83.316406 141.945312 C 82.160156 141.945312 81.21875 141.007812 81.21875 139.847656 C 81.21875 138.6875 82.160156 137.746094 83.316406 137.746094 L 116.679688 137.746094 C 117.839844 137.746094 118.78125 138.6875 118.78125 139.847656 C 118.78125 141.003906 117.839844 141.945312 116.679688 141.945312 Z M 116.679688 141.945312 "/>
<path style=" stroke:none;fill-rule:nonzero;fill:rgb(76.47059%,77.64706%,78.431374%);fill-opacity:1;" d="M 100 151.03125 L 8.292969 92.363281 L 8.292969 186.878906 C 8.292969 194.09375 14.199219 200 21.414062 200 L 178.585938 200 C 185.804688 200 191.707031 194.09375 191.707031 186.878906 L 191.707031 92.363281 Z M 100 151.03125 "/>
<path style=" stroke:none;fill-rule:nonzero;fill:rgb(90.980393%,90.980393%,90.980393%);fill-opacity:1;" d="M 100 124.484375 L 8.292969 183.152344 L 8.292969 186.878906 C 8.292969 194.09375 14.199219 200 21.414062 200 L 178.585938 200 C 185.804688 200 191.707031 194.09375 191.707031 186.878906 L 191.707031 183.152344 Z M 100 124.484375 "/>
</g>
</svg>
